<?xml version="1.0" encoding="UTF-8" standalone="no"?>
<!-- Generator: Gravit.io -->
<svg xmlns="http://www.w3.org/2000/svg" xmlns:xlink="http://www.w3.org/1999/xlink" style="isolation:isolate" viewBox="0 0 32 32" width="32pt" height="32pt"><defs><clipPath id="_clipPath_OZBYZtwmbzhUckXORM3vn74fR15pAMPh"><rect width="32" height="32"/></clipPath></defs><g clip-path="url(#_clipPath_OZBYZtwmbzhUckXORM3vn74fR15pAMPh)"><rect x="6" y="3" width="15" height="1" transform="matrix(1,0,0,1,0,0)" fill="rgb(13,71,161)"/><rect x="6" y="4" width="1" height="25" transform="matrix(1,0,0,1,0,0)" fill="rgb(13,71,161)"/><rect x="7" y="28" width="19" height="1" transform="matrix(1,0,0,1,0,0)" fill="rgb(13,71,161)"/><rect x="25" y="7.95" width="1" height="20.05" transform="matrix(1,0,0,1,0,0)" fill="rgb(13,71,161)"/><rect x="19.672" y="5.328" width="7" height="1" transform="matrix(0.707,0.707,-0.707,0.707,10.908,-14.678)" fill="rgb(13,71,161)"/><polygon points="16.464,25,13,19,19.928,19" fill="rgb(13,71,161)"/><rect x="16" y="13" width="1" height="6" transform="matrix(1,0,0,1,0,0)" fill="rgb(13,71,161)"/></g></svg>