<?xml version="1.0" encoding="UTF-8" standalone="no"?>
<!-- Generator: Gravit.io -->
<svg xmlns="http://www.w3.org/2000/svg" xmlns:xlink="http://www.w3.org/1999/xlink" style="isolation:isolate" viewBox="0 0 32 32" width="32pt" height="32pt"><defs><clipPath id="_clipPath_C7XwIPYGXCsumy88ZS1AnEkkA1QOEd7w"><rect width="32" height="32"/></clipPath></defs><g clip-path="url(#_clipPath_C7XwIPYGXCsumy88ZS1AnEkkA1QOEd7w)"><rect width="32" height="32" style="fill:rgb(0,0,0)" fill-opacity="0"/><rect x="8" y="14" width="2" height="14" transform="matrix(1,0,0,1,0,0)" fill="rgb(255,255,255)"/><rect x="20" y="14" width="2" height="14" transform="matrix(1,0,0,1,0,0)" fill="rgb(255,255,255)"/><rect x="8.861" y="1.265" width="2" height="16.435" transform="matrix(0.707,0.707,-0.707,0.707,9.593,-4.195)" fill="rgb(255,255,255)"/><rect x="19.139" y="1.265" width="2" height="16.435" transform="matrix(0.707,-0.707,0.707,0.707,-0.806,17.018)" fill="rgb(255,255,255)"/><rect x="8" y="26" width="14" height="2" transform="matrix(1,0,0,1,0,0)" fill="rgb(255,255,255)"/><rect x="9" y="6" width="2" height="3.482" transform="matrix(1,0,0,1,0,0)" fill="rgb(255,255,255)"/></g></svg>