<?xml version="1.0" encoding="UTF-8" standalone="no"?><!-- Generator: Gravit.io --><svg xmlns="http://www.w3.org/2000/svg" xmlns:xlink="http://www.w3.org/1999/xlink" style="isolation:isolate" viewBox="0 0 32 32" width="32pt" height="32pt"><defs><clipPath id="_clipPath_sBDUvr25X5CC4gfsP8FKpPu3KkT7xz0e"><rect width="32" height="32"/></clipPath></defs><g clip-path="url(#_clipPath_sBDUvr25X5CC4gfsP8FKpPu3KkT7xz0e)"><circle vector-effect="non-scaling-stroke" cx="16.000000000000004" cy="10.078727385807948" r="4.078727385807952" fill="rgb(255,255,255)"/><circle vector-effect="non-scaling-stroke" cx="16.000000000000004" cy="15.579006030451215" r="4.078727385807952" fill="rgb(255,255,255)"/><rect x="11.921" y="10.079" width="8.157" height="5.71" transform="matrix(1,0,0,1,0,0)" fill="rgb(255,255,255)"/><circle vector-effect="non-scaling-stroke" cx="10.289781659868874" cy="14.973200248777484" r="0.81574547716159" fill="rgb(255,255,255)"/><circle vector-effect="non-scaling-stroke" cx="21.710218340131128" cy="14.973200248777484" r="0.8157454771615882" fill="rgb(255,255,255)"/><path d=" M 21.71 15.579 C 21.71 19.123 19.152 22 16 22 C 12.848 22 10.29 19.123 10.29 15.579" fill="none" vector-effect="non-scaling-stroke" stroke-width="2" stroke="rgb(255,255,255)" stroke-linejoin="miter" stroke-linecap="square" stroke-miterlimit="3"/><rect x="15" y="22" width="2" height="5" transform="matrix(1,0,0,1,0,0)" fill="rgb(255,255,255)"/><rect x="12" y="26" width="8.079" height="1" transform="matrix(1,0,0,1,0,0)" fill="rgb(255,255,255)"/></g></svg>