<?xml version="1.0" encoding="UTF-8" standalone="no"?>
<!-- Generator: Gravit.io -->
<svg xmlns="http://www.w3.org/2000/svg" xmlns:xlink="http://www.w3.org/1999/xlink" style="isolation:isolate" viewBox="0 0 256 256" width="256pt" height="256pt"><defs><clipPath id="_clipPath_2inxv3sQvXIFlXkpzoPcw3UoGn9dHWRC"><rect width="256" height="256"/></clipPath></defs><g clip-path="url(#_clipPath_2inxv3sQvXIFlXkpzoPcw3UoGn9dHWRC)"><rect width="256" height="256" style="fill:rgb(0,131,180)"/><path d="M 88 66.5 L 88 66.5 C 92.415 66.5 96 70.085 96 74.5 L 96 181.5 C 96 185.915 92.415 189.5 88 189.5 L 88 189.5 C 83.585 189.5 80 185.915 80 181.5 L 80 74.5 C 80 70.085 83.585 66.5 88 66.5 Z" style="stroke:none;fill:#FFFFFF;stroke-miterlimit:10;"/><path d="M 168 66.5 L 168 66.5 C 172.415 66.5 176 70.085 176 74.5 L 176 181.5 C 176 185.915 172.415 189.5 168 189.5 L 168 189.5 C 163.585 189.5 160 185.915 160 181.5 L 160 74.5 C 160 70.085 163.585 66.5 168 66.5 Z" style="stroke:none;fill:#FFFFFF;stroke-miterlimit:10;"/><path d="M 145.725 96.5 L 150.275 96.5 C 153.435 96.5 156 99.065 156 102.225 L 156 153.775 C 156 156.935 153.435 159.5 150.275 159.5 L 145.725 159.5 C 142.565 159.5 140 156.935 140 153.775 L 140 102.225 C 140 99.065 142.565 96.5 145.725 96.5 Z" style="stroke:none;fill:#FFFFFF;stroke-miterlimit:10;"/><path d="M 126.572 86.5 L 129.428 86.5 C 133.055 86.5 136 89.445 136 93.072 L 136 162.928 C 136 166.555 133.055 169.5 129.428 169.5 L 126.572 169.5 C 122.945 169.5 120 166.555 120 162.928 L 120 93.072 C 120 89.445 122.945 86.5 126.572 86.5 Z" style="stroke:none;fill:#FFFFFF;stroke-miterlimit:10;"/><path d="M 107.321 76.5 L 108.679 76.5 C 112.72 76.5 116 79.78 116 83.821 L 116 172.179 C 116 176.22 112.72 179.5 108.679 179.5 L 107.321 179.5 C 103.28 179.5 100 176.22 100 172.179 L 100 83.821 C 100 79.78 103.28 76.5 107.321 76.5 Z" style="stroke:none;fill:#FFFFFF;stroke-miterlimit:10;"/></g></svg>