<?xml version="1.0" encoding="UTF-8" standalone="no"?>
<!-- Generator: Gravit.io -->
<svg xmlns="http://www.w3.org/2000/svg" xmlns:xlink="http://www.w3.org/1999/xlink" style="isolation:isolate" viewBox="0 0 256 256" width="256pt" height="256pt"><defs><clipPath id="_clipPath_RgI5cAxNATiwMfljl2qrojvq4mGmyTWa"><rect width="256" height="256"/></clipPath></defs><g clip-path="url(#_clipPath_RgI5cAxNATiwMfljl2qrojvq4mGmyTWa)"><rect width="256" height="256" style="fill:rgb(15,76,117)"/><path d=" M 96 79.447 L 80 66.5 L 80 128 L 80 189.5 L 96 176.553 L 96 79.447 L 96 79.447 Z " fill="rgb(255,255,255)"/><path d=" M 100 173.316 L 116 160.368 L 116 95.632 L 116 95.632 L 100 82.684 L 100 173.316 L 100 173.316 Z " fill="rgb(255,255,255)"/><path d=" M 120 157.132 L 136 144.184 L 136 111.816 L 136 111.816 L 120 98.868 L 120 157.132 L 120 157.132 Z " fill="rgb(255,255,255)"/><path d=" M 140 140.947 L 156 128 L 140 115.053 L 140 140.947 L 140 140.947 Z " fill="rgb(255,255,255)"/><rect x="160" y="66.5" width="16" height="123" transform="matrix(1,0,0,1,0,0)" fill="rgb(255,255,255)"/></g></svg>