<?xml version="1.0" encoding="UTF-8" standalone="no"?>
<!-- Generator: Gravit.io -->
<svg xmlns="http://www.w3.org/2000/svg" xmlns:xlink="http://www.w3.org/1999/xlink" style="isolation:isolate" viewBox="0 0 32 32" width="32pt" height="32pt"><defs><clipPath id="_clipPath_tgZSNqXhXOUplaKkMqzhuBmX5vpV6Z7k"><rect width="32" height="32"/></clipPath></defs><g clip-path="url(#_clipPath_tgZSNqXhXOUplaKkMqzhuBmX5vpV6Z7k)"><rect x="6" y="3" width="2" height="26" transform="matrix(1,0,0,1,0,0)" fill="rgb(255,255,255)"/><rect x="8" y="3" width="2" height="2" transform="matrix(1,0,0,1,0,0)" fill="rgb(255,255,255)"/><rect x="8" y="27" width="2" height="2" transform="matrix(1,0,0,1,0,0)" fill="rgb(255,255,255)"/><rect x="20" y="3" width="2" height="26" transform="matrix(1,0,0,1,0,0)" fill="rgb(255,255,255)"/><rect x="24" y="3" width="2" height="26" transform="matrix(1,0,0,1,0,0)" fill="rgb(255,255,255)"/><rect x="22" y="3" width="2" height="2" transform="matrix(1,0,0,1,0,0)" fill="rgb(255,255,255)"/><rect x="22" y="27" width="2" height="2" transform="matrix(1,0,0,1,0,0)" fill="rgb(255,255,255)"/><rect x="10" y="3" width="2" height="26" transform="matrix(1,0,0,1,0,0)" fill="rgb(255,255,255)"/></g></svg>