<?xml version="1.0" encoding="UTF-8" standalone="no"?><!-- Generator: Gravit.io --><svg xmlns="http://www.w3.org/2000/svg" xmlns:xlink="http://www.w3.org/1999/xlink" style="isolation:isolate" viewBox="0 0 32 32" width="32pt" height="32pt"><defs><clipPath id="_clipPath_yDlpKusp2UwvNl1fFwPIFHRkMRtoiLMD"><rect width="32" height="32"/></clipPath></defs><g clip-path="url(#_clipPath_yDlpKusp2UwvNl1fFwPIFHRkMRtoiLMD)"><polygon points="16,11,18,12,14,12" fill="rgb(255,255,255)"/><rect x="16" y="11" width="2" height="10" transform="matrix(1,0,0,1,0,0)" fill="rgb(255,255,255)"/><rect x="7" y="7" width="2" height="6" transform="matrix(1,0,0,1,0,0)" fill="rgb(255,255,255)"/><rect x="23" y="19" width="2" height="6" transform="matrix(1,0,0,1,0,0)" fill="rgb(255,255,255)"/><rect x="8" y="23" width="15" height="2" transform="matrix(1,0,0,1,0,0)" fill="rgb(255,255,255)"/><rect x="9" y="7" width="14" height="2" transform="matrix(1,0,0,1,0,0)" fill="rgb(255,255,255)"/><polygon points="28.5,8,23,12,23,4" fill="rgb(255,255,255)"/><polygon points="3.5,24,9,28,9,20" fill="rgb(255,255,255)"/><rect x="14" y="12" width="2" height="1" transform="matrix(1,0,0,1,0,0)" fill="rgb(255,255,255)"/></g></svg>