<?xml version="1.0" encoding="UTF-8" standalone="no"?>
<!-- Generator: Gravit.io -->
<svg xmlns="http://www.w3.org/2000/svg" xmlns:xlink="http://www.w3.org/1999/xlink" style="isolation:isolate" viewBox="0 0 32 32" width="32pt" height="32pt"><defs><clipPath id="_clipPath_sveNJmzuO2C9U3Dj3oXzNccogdjBzItR"><rect width="32" height="32"/></clipPath></defs><g clip-path="url(#_clipPath_sveNJmzuO2C9U3Dj3oXzNccogdjBzItR)"><rect x="4" y="4" width="2" height="20" transform="matrix(1,0,0,1,0,0)" fill="rgb(255,255,255)"/><rect x="26" y="8" width="2" height="20" transform="matrix(1,0,0,1,0,0)" fill="rgb(255,255,255)"/><rect x="8" y="26" width="18" height="2" transform="matrix(1,0,0,1,0,0)" fill="rgb(255,255,255)"/><rect x="6" y="4" width="19" height="2" transform="matrix(1,0,0,1,0,0)" fill="rgb(255,255,255)"/><polygon points="28,5,23.5,7.598,23.5,2.402" fill="rgb(255,255,255)"/><polygon points="4,27,8.5,29.598,8.5,24.402" fill="rgb(255,255,255)"/><polygon points="16,8,19.464,14,12.536,14" fill="rgb(255,255,255)"/><rect x="16" y="8" width="3.464" height="16" transform="matrix(1,0,0,1,0,0)" fill="rgb(255,255,255)"/></g></svg>