<?xml version="1.0" encoding="UTF-8" standalone="no"?><!-- Generator: Gravit.io --><svg xmlns="http://www.w3.org/2000/svg" xmlns:xlink="http://www.w3.org/1999/xlink" style="isolation:isolate" viewBox="0 0 32 32" width="32pt" height="32pt"><defs><clipPath id="_clipPath_gkV6DFcMvK0vhnNMVStSADgLykqMrXHU"><rect width="32" height="32"/></clipPath></defs><g clip-path="url(#_clipPath_gkV6DFcMvK0vhnNMVStSADgLykqMrXHU)"><circle vector-effect="non-scaling-stroke" cx="16" cy="16" r="8" fill="none" stroke-width="4" stroke="rgb(255,255,255)" stroke-linejoin="miter" stroke-linecap="square" stroke-miterlimit="3"/><rect x="13.5" y="4" width="5" height="4" transform="matrix(1,0,0,1,0,0)" fill="rgb(255,255,255)"/><rect x="5.379" y="20.257" width="5" height="3.828" transform="matrix(0.707,0.707,-0.707,0.707,17.985,0.923)" fill="rgb(255,255,255)"/><rect x="21.884" y="7.331" width="5" height="4.571" transform="matrix(0.707,0.707,-0.707,0.707,13.941,-14.426)" fill="rgb(255,255,255)"/><rect x="21.871" y="20.154" width="5" height="4.536" transform="matrix(0.707,-0.707,0.707,0.707,-8.716,23.8)" fill="rgb(255,255,255)"/><rect x="5.366" y="7.934" width="5" height="3.864" transform="matrix(0.707,-0.707,0.707,0.707,-4.672,8.452)" fill="rgb(255,255,255)"/><rect x="13.5" y="24" width="5" height="4" transform="matrix(1,0,0,1,0,0)" fill="rgb(255,255,255)"/></g></svg>