<?xml version="1.0" encoding="UTF-8" standalone="no"?>
<!-- Generator: Gravit.io -->
<svg xmlns="http://www.w3.org/2000/svg" xmlns:xlink="http://www.w3.org/1999/xlink" style="isolation:isolate" viewBox="0 0 32 32" width="32pt" height="32pt"><defs><clipPath id="_clipPath_wxIikey1zju5YLxCmTi0YBaHK297z74v"><rect width="32" height="32"/></clipPath></defs><g clip-path="url(#_clipPath_wxIikey1zju5YLxCmTi0YBaHK297z74v)"><circle vector-effect="non-scaling-stroke" cx="16" cy="16" r="8" fill="none" stroke-width="2" stroke="rgb(255,255,255)" stroke-linejoin="miter" stroke-linecap="square" stroke-miterlimit="3"/><rect x="13.5" y="6" width="5" height="2" transform="matrix(1,0,0,1,0,0)" fill="rgb(255,255,255)"/><rect x="6.025" y="20.525" width="5" height="2" transform="matrix(0.707,0.707,-0.707,0.707,17.718,0.276)" fill="rgb(255,255,255)"/><rect x="20.975" y="9.525" width="5" height="2" transform="matrix(0.707,0.707,-0.707,0.707,14.318,-13.517)" fill="rgb(255,255,255)"/><rect x="20.975" y="20.525" width="5" height="2" transform="matrix(0.707,-0.707,0.707,0.707,-8.345,22.904)" fill="rgb(255,255,255)"/><rect x="6.025" y="9.525" width="5" height="2" transform="matrix(0.707,-0.707,0.707,0.707,-4.945,9.111)" fill="rgb(255,255,255)"/><rect x="13.5" y="24" width="5" height="2" transform="matrix(1,0,0,1,0,0)" fill="rgb(255,255,255)"/></g></svg>