<?xml version="1.0" encoding="UTF-8" standalone="no"?>
<!-- Generator: Gravit.io -->
<svg xmlns="http://www.w3.org/2000/svg" xmlns:xlink="http://www.w3.org/1999/xlink" style="isolation:isolate" viewBox="0 0 32 32" width="32pt" height="32pt"><defs><clipPath id="_clipPath_8Bd7XIJU6xCBzDJj13KzkUkgRMyfLFUR"><rect width="32" height="32"/></clipPath></defs><g clip-path="url(#_clipPath_8Bd7XIJU6xCBzDJj13KzkUkgRMyfLFUR)"><polygon points="6,16,18,8.5,18,23.5" fill="rgb(255,255,255)"/><path d="M 24.816 11 L 25.184 11 C 25.634 11 26 11.366 26 11.816 L 26 20.184 C 26 20.634 25.634 21 25.184 21 L 24.816 21 C 24.366 21 24 20.634 24 20.184 L 24 11.816 C 24 11.366 24.366 11 24.816 11 Z" style="stroke:none;fill:#FFFFFF;stroke-miterlimit:10;"/><rect x="6" y="11" width="9" height="10" transform="matrix(1,0,0,1,0,0)" fill="rgb(255,255,255)"/><path d="M 20.913 15.25 L 29.087 15.25 C 29.591 15.25 30 15.659 30 16.163 L 30 16.337 C 30 16.841 29.591 17.25 29.087 17.25 L 20.913 17.25 C 20.409 17.25 20 16.841 20 16.337 L 20 16.163 C 20 15.659 20.409 15.25 20.913 15.25 Z" style="stroke:none;fill:#FFFFFF;stroke-miterlimit:10;"/></g></svg>