<?xml version="1.0" encoding="UTF-8" standalone="no"?>
<!-- Generator: Gravit.io -->
<svg xmlns="http://www.w3.org/2000/svg" xmlns:xlink="http://www.w3.org/1999/xlink" style="isolation:isolate" viewBox="0 0 32 32" width="32pt" height="32pt"><defs><clipPath id="_clipPath_jY4fIp62zki95yjXW6PuYawiIrcI7eSU"><rect width="32" height="32"/></clipPath></defs><g clip-path="url(#_clipPath_jY4fIp62zki95yjXW6PuYawiIrcI7eSU)"><polygon points="6,16,18,8.5,18,23.5" fill="rgb(255,255,255)"/><path d="M 21 12.25 L 21 12.25 C 21.552 12.25 22 12.698 22 13.25 L 22 18.75 C 22 19.302 21.552 19.75 21 19.75 L 21 19.75 C 20.448 19.75 20 19.302 20 18.75 L 20 13.25 C 20 12.698 20.448 12.25 21 12.25 Z" style="stroke:none;fill:#FFFFFF;stroke-miterlimit:10;"/><path d="M 25 9 L 25 9 C 25.552 9 26 9.448 26 10 L 26 23 C 26 23.552 25.552 24 25 24 L 25 24 C 24.448 24 24 23.552 24 23 L 24 10 C 24 9.448 24.448 9 25 9 Z" style="stroke:none;fill:#FFFFFF;stroke-miterlimit:10;"/><rect x="6" y="11" width="9" height="10" transform="matrix(1,0,0,1,0,0)" fill="rgb(255,255,255)"/></g></svg>